<?xml version="1.0" ?><svg viewBox="0 0 64 64" xmlns="http://www.w3.org/2000/svg"><defs><style>.cls-1{fill:none;}.cls-1,.cls-2{stroke:#000;stroke-linecap:round;stroke-linejoin:round;stroke-width:2px;}.cls-2{fill:#ffce56;}</style></defs><g id="kitty"><rect class="cls-1" height="54" rx="4.7504" width="51" x="7" y="8"/><rect class="cls-1" height="37" width="43" x="11" y="21"/><path d="M4,43a1,1,0,1,1-1-1A1,1,0,0,1,4,43Z"/><path class="cls-1" d="M27.3442,50.2078a10.25,10.25,0,0,0-3.8125,3.724"/><path class="cls-1" d="M40.4536,53.9072A10.2462,10.2462,0,0,0,36.6587,50.21"/><path class="cls-1" d="M26.1963,29.5816A9.8411,9.8411,0,0,0,19.9531,25s-3.9419,6.307-.6256,10.521"/><path class="cls-1" d="M36.9345,29.308A9.7253,9.7253,0,0,1,43,25s3.4291,5.4866,1.2,9.6442"/><path class="cls-1" d="M33.7043,29H30.2957A12.2956,12.2956,0,0,0,18,41.2957l-2,1.6716C16,46.2991,20.7009,49,24.0327,49h2.6916a5.1273,5.1273,0,0,0,4.66,3h1.2316a5.1273,5.1273,0,0,0,4.66-3h2.6916C43.2991,49,48,46.2991,48,42.9673l-2-1.6716A12.2956,12.2956,0,0,0,33.7043,29Z"/><path class="cls-1" d="M37,57.8809V56.34A2.34,2.34,0,0,1,39.34,54h1.32A2.34,2.34,0,0,1,43,56.34v1.5082"/><path class="cls-1" d="M21,57.8484V56.34A2.34,2.34,0,0,1,23.34,54h1.32A2.34,2.34,0,0,1,27,56.34v1.5245"/><path class="cls-1" d="M33.9619,46A1.9619,1.9619,0,0,1,32,44.0381V43"/><path class="cls-1" d="M29.8381,46A1.9619,1.9619,0,0,0,31.8,44.0381V43"/><path class="cls-2" d="M32.5936,42H31.3818a.8522.8522,0,0,1-.5187-.1246l-.6355-.6355c-.118-.118.1456-.24.5188-.24H33.229c.3733,0,.6368.1219.5188.24l-.6354.6355A.8525.8525,0,0,1,32.5936,42Z"/><line class="cls-1" x1="36" x2="39" y1="38" y2="37"/><line class="cls-1" x1="28" x2="25" y1="38" y2="37"/><path class="cls-1" d="M22,42a6.8454,6.8454,0,0,0-8-2"/><path class="cls-1" d="M22,45s-5,0-7,3"/><path class="cls-1" d="M43,42a6.8454,6.8454,0,0,1,8-2"/><path class="cls-1" d="M43,45s5,0,7,3"/><circle cx="60" cy="5" r="1"/><path class="cls-1" d="M33.9344,11.0833a1.9755,1.9755,0,0,0-1.4344.6316,1.9756,1.9756,0,0,0-1.4344-.6316A2.1607,2.1607,0,0,0,29,13.3279c0,1.87,3.5,4.1721,3.5,4.1721S36,15.1984,36,13.3279A2.1607,2.1607,0,0,0,33.9344,11.0833Z"/><line class="cls-1" x1="39" x2="46" y1="14" y2="14"/><line class="cls-1" x1="19" x2="26" y1="14" y2="14"/></g></svg>